<svg width="24" height="24" viewBox="0 0 24 24" fill="none" xmlns="http://www.w3.org/2000/svg">
<g id="6e2df1214655fabfd6c4272c7885bf8e 1">
<g id="Group">
<g id="Group_2">
<path id="Vector" d="M11.0463 3.58056C11.4279 3.70008 11.6945 3.92088 11.8786 4.27488L11.989 4.48176L12.0027 6.95088L12.0166 9.42456H6.86212H1.70788L1.72156 6.95088C1.73524 4.5048 1.73524 4.48176 1.83652 4.29312C1.99276 3.99888 2.16292 3.8196 2.42044 3.68616L2.65492 3.56208L6.79324 3.55296C9.06916 3.5484 10.982 3.56232 11.0463 3.58056ZM9.45532 5.08416C9.35884 5.13024 9.24844 5.2404 9.17932 5.36016C9.06436 5.55336 9.06436 5.56248 9.07828 6.52344C9.09196 7.41096 9.10132 7.49832 9.18868 7.61328C9.36796 7.85688 9.51508 7.93056 9.80476 7.93056C10.0944 7.93056 10.2416 7.85688 10.4208 7.61328C10.5082 7.49832 10.5173 7.41096 10.5312 6.52344C10.5449 5.56248 10.5449 5.55336 10.4302 5.36016C10.3659 5.24976 10.2464 5.13024 10.1636 5.08896C9.9658 4.99224 9.65308 4.99224 9.45532 5.08416ZM6.439 5.12568C6.37012 5.17632 6.2734 5.29584 6.2182 5.38776C6.12628 5.55336 6.12172 5.61312 6.1354 6.52344C6.14908 7.41096 6.15844 7.49832 6.2458 7.61328C6.42508 7.85688 6.5722 7.93056 6.86188 7.93056C7.15156 7.93056 7.29868 7.85688 7.47796 7.61328C7.56532 7.49832 7.57444 7.41096 7.58836 6.52344C7.60204 5.56248 7.60204 5.55336 7.48732 5.36016C7.423 5.24976 7.30348 5.12568 7.22068 5.08416C7.01836 4.98312 6.6046 5.00592 6.439 5.12568ZM3.49636 5.12568C3.42748 5.17632 3.33076 5.29584 3.27556 5.38776C3.18364 5.55336 3.17908 5.61312 3.19276 6.52344C3.20644 7.41096 3.2158 7.49832 3.30316 7.61328C3.48244 7.85688 3.62956 7.93056 3.91924 7.93056C4.20892 7.93056 4.35604 7.85688 4.53532 7.61328C4.62268 7.49832 4.6318 7.41096 4.64572 6.52344C4.6594 5.56248 4.6594 5.55336 4.54444 5.36016C4.48012 5.24976 4.3606 5.12568 4.2778 5.08416C4.07572 4.98312 3.66196 5.00592 3.49636 5.12568Z" fill="#FF6B00"/>
<path id="Vector_2" d="M19.056 4.36228C19.5847 4.53244 20.2238 4.98292 20.909 5.67268C22.2149 6.98308 23.2541 8.70748 23.6494 10.2293C23.7598 10.6385 23.7598 10.6661 23.7598 13.1031V15.5631L23.6402 15.8206C23.4792 16.1655 23.1989 16.4367 22.8264 16.6114C22.5689 16.7309 22.4585 16.754 22.0584 16.7724L21.594 16.7909L21.5388 17.2186C21.3456 18.7359 20.2882 19.9361 18.7709 20.3499C18.3571 20.4603 17.4374 20.4603 17.0237 20.3499C16.3385 20.1615 15.8513 19.8855 15.3547 19.4072C14.7017 18.782 14.334 18.014 14.2421 17.0897L14.2099 16.7816H11.6489H9.08784L9.0372 17.1862C8.9268 18.0644 8.59584 18.7311 7.9704 19.3611C7.52448 19.807 7.10136 20.0739 6.5772 20.2486C5.20248 20.7084 3.7632 20.359 2.76552 19.3244C2.154 18.6898 1.82304 17.9818 1.73544 17.0897L1.70328 16.7816H1.39512C1.22952 16.7816 1.00896 16.7585 0.907682 16.7309C0.668642 16.662 0.360481 16.3539 0.291601 16.1148C0.222721 15.8573 0.222721 11.0847 0.291601 10.8272C0.360481 10.5881 0.668642 10.28 0.907682 10.2111C1.03632 10.1744 2.88936 10.1604 7.2852 10.1604H13.4786L13.4926 7.82476L13.5062 5.49364L13.6258 5.23612C13.7868 4.89124 14.0671 4.62004 14.4396 4.44532L14.7478 4.2982L16.771 4.28908C18.6283 4.27948 18.817 4.28428 19.056 4.36228ZM15.2947 5.86588C15.2258 5.91652 15.1246 6.01756 15.0739 6.08668C14.982 6.2062 14.9774 6.27052 14.9774 7.40164C14.9774 8.53276 14.982 8.59708 15.0739 8.7166C15.2486 8.95108 15.3866 9.0154 15.9017 9.10732C16.573 9.2314 16.973 9.35092 17.4144 9.57172C17.8925 9.8062 18.187 10.0316 18.5455 10.4362C18.7066 10.62 18.895 10.7948 18.9638 10.8317C19.1477 10.9282 20.9731 10.9236 21.1572 10.8272C21.3456 10.7307 21.5203 10.5053 21.5573 10.3121C21.5986 10.1007 21.479 9.4294 21.3182 8.94196C20.9136 7.7098 19.9481 6.3394 19.1342 5.84284C18.9826 5.74636 18.9365 5.74636 17.1984 5.75548C15.4834 5.7694 15.4145 5.77396 15.2947 5.86588ZM17.3592 14.6388C17.2258 14.6756 17.0189 14.7492 16.8994 14.809C16.6006 14.9516 16.0625 15.4988 15.9108 15.816C15.5107 16.6666 15.6624 17.6184 16.32 18.3036C17.1936 19.2188 18.6281 19.2094 19.4971 18.2806C20.1271 17.6048 20.2788 16.7172 19.9109 15.8621C19.7362 15.462 19.2166 14.9424 18.8165 14.7677C18.3617 14.5745 17.7962 14.5239 17.3592 14.6388ZM4.8528 14.6388C4.7196 14.6756 4.51248 14.7492 4.39296 14.809C4.1124 14.9424 3.56064 15.4988 3.41808 15.7839C2.99976 16.6438 3.15144 17.6093 3.8136 18.3036C4.48032 19.0025 5.5056 19.1818 6.38856 18.7544C6.67368 18.6118 7.23 18.06 7.36344 17.7795C7.65768 17.1634 7.67136 16.4921 7.40472 15.8621C7.23 15.462 6.7104 14.9424 6.31032 14.7677C5.85504 14.5745 5.2896 14.5239 4.8528 14.6388Z" fill="#FF6B00"/>
</g>
</g>
</g>
</svg>
